<svg xmlns="http://www.w3.org/2000/svg" width="1024" height="1024" viewBox="0 0 1024 1024">
  <defs>
    <linearGradient id="bg" x1="0" y1="0" x2="1" y2="1">
      <stop offset="0%" stop-color="#8B5CF6"/>
      <stop offset="100%" stop-color="#4338CA"/>
    </linearGradient>
    <radialGradient id="glow" cx="0.35" cy="0.25" r="0.6">
      <stop offset="0%" stop-color="#C4B5FD" stop-opacity="0.2"/>
      <stop offset="100%" stop-color="#C4B5FD" stop-opacity="0"/>
    </radialGradient>
    <filter id="ds" x="-5%" y="-10%" width="110%" height="130%">
      <feDropShadow dx="0" dy="12" stdDeviation="28" flood-color="#1E1B4B" flood-opacity="0.3"/>
    </filter>
  </defs>

  <rect width="1024" height="1024" rx="224" fill="url(#bg)"/>
  <rect width="1024" height="1024" rx="224" fill="url(#glow)"/>

  <rect x="128" y="360" width="768" height="304" rx="56" fill="#FFFFFF" filter="url(#ds)"/>

  <path d="M 284 444 L 424 512 L 284 580 Z" fill="#6D28D9"/>

  <rect x="464" y="460" width="36" height="104" rx="18" fill="#7C3AED"/>
  <rect x="524" y="420" width="36" height="184" rx="18" fill="#7C3AED" opacity="0.8"/>
  <rect x="584" y="476" width="36" height="72" rx="18" fill="#7C3AED" opacity="0.6"/>
  <rect x="644" y="440" width="36" height="144" rx="18" fill="#7C3AED" opacity="0.7"/>
  <rect x="704" y="466" width="36" height="96" rx="18" fill="#7C3AED" opacity="0.5"/>

  <rect x="188" y="608" width="648" height="12" rx="6" fill="#E5E7EB"/>
  <rect x="188" y="608" width="260" height="12" rx="6" fill="#7C3AED"/>
</svg>
